<svg xmlns="http://www.w3.org/2000/svg" viewBox="0 0 512 512" fill="none">
  <!-- Robot Head -->
  <rect x="156" y="156" width="200" height="200" rx="20" fill="#3b82f6" stroke="#1e40af" stroke-width="4"/>
  
  <!-- Antenna -->
  <line x1="256" y1="156" x2="256" y2="100" stroke="#1e40af" stroke-width="6" stroke-linecap="round"/>
  <circle cx="256" cy="90" r="14" fill="#60a5fa" stroke="#1e40af" stroke-width="4"/>
  
  <!-- Eyes -->
  <circle cx="206" cy="226" r="24" fill="#ffffff"/>
  <circle cx="306" cy="226" r="24" fill="#ffffff"/>
  <circle cx="210" cy="230" r="12" fill="#1e40af"/>
  <circle cx="310" cy="230" r="12" fill="#1e40af"/>
  
  <!-- Mouth/Display -->
  <rect x="196" y="286" width="120" height="30" rx="15" fill="#1e40af"/>
  <rect x="206" y="294" width="20" height="14" rx="2" fill="#60a5fa"/>
  <rect x="236" y="294" width="20" height="14" rx="2" fill="#60a5fa"/>
  <rect x="266" y="294" width="20" height="14" rx="2" fill="#60a5fa"/>
  <rect x="296" y="294" width="10" height="14" rx="2" fill="#60a5fa"/>
  
  <!-- Ears/Side panels -->
  <rect x="136" y="226" width="20" height="60" rx="10" fill="#2563eb" stroke="#1e40af" stroke-width="3"/>
  <rect x="356" y="226" width="20" height="60" rx="10" fill="#2563eb" stroke="#1e40af" stroke-width="3"/>
  
  <!-- Body hint -->
  <rect x="176" y="356" width="160" height="20" rx="10" fill="#3b82f6" stroke="#1e40af" stroke-width="3"/>
</svg>